Comme-Thin.ufo
<glyph name="dollar" format="1">
  <advance width="1192"/>
  <unicode hex="0024"/>
  <outline>
    <component base="S"/>
    <contour>
      <point x="597" y="1710" type="line"/>
      <point x="595" y="1444" type="line"/>
      <point x="662" y="1444" type="line"/>
      <point x="662" y="1710" type="line"/>
    </contour>
    <contour>
      <point x="586" y="9" type="line"/>
      <point x="586" y="-334" type="line"/>
      <point x="651" y="-334" type="line"/>
      <point x="652" y="9" type="line"/>
    </contour>
  </outline>
</glyph>
<glyph name="ampersand" format="1">
  <advance width="1493"/>
  <unicode hex="0026"/>
  <outline>
    <contour>
      <point x="1074" y="191" type="line"/>
      <point x="967" y="104"/>
      <point x="842" y="47"/>
      <point x="713" y="47" type="curve" smooth="yes"/>
      <point x="436" y="47"/>
      <point x="291" y="156"/>
      <point x="291" y="367" type="curve" smooth="yes"/>
      <point x="291" y="515"/>
      <point x="385" y="647"/>
      <point x="566" y="753" type="curve"/>
    </contour>
    <contour>
      <point x="1270" y="-26" type="line"/>
      <point x="1323" y="21" type="line"/>
      <point x="1173" y="186" type="line"/>
      <point x="1263" y="272"/>
      <point x="1333" y="377"/>
      <point x="1377" y="485" type="curve"/>
      <point x="1324" y="524" type="line"/>
      <point x="1279" y="420"/>
      <point x="1210" y="320"/>
      <point x="1126" y="238" type="curve"/>
      <point x="629" y="786" type="line"/>
      <point x="850" y="879"/>
      <point x="1015" y="1005"/>
      <point x="1015" y="1167" type="curve" smooth="yes"/>
      <point x="1015" y="1351"/>
      <point x="886" y="1474"/>
      <point x="696" y="1474" type="curve" smooth="yes"/>
      <point x="470" y="1474"/>
      <point x="318" y="1355"/>
      <point x="318" y="1176" type="curve" smooth="yes"/>
      <point x="318" y="1045"/>
      <point x="377" y="962"/>
      <point x="511" y="805" type="curve"/>
      <point x="308" y="682"/>
      <point x="202" y="529"/>
      <point x="202" y="359" type="curve" smooth="yes"/>
      <point x="202" y="111"/>
      <point x="375" y="-19"/>
      <point x="699" y="-19" type="curve" smooth="yes"/>
      <point x="857" y="-19"/>
      <point x="1003" y="43"/>
      <point x="1121" y="139" type="curve"/>
    </contour>
    <contour>
      <point x="582" y="833" type="curve"/>
      <point x="421" y="1008"/>
      <point x="389" y="1064"/>
      <point x="389" y="1179" type="curve" smooth="yes"/>
      <point x="389" y="1318"/>
      <point x="511" y="1410"/>
      <point x="693" y="1410" type="curve" smooth="yes"/>
      <point x="845" y="1410"/>
      <point x="944" y="1317"/>
      <point x="944" y="1178" type="curve" smooth="yes"/>
      <point x="944" y="1020"/>
      <point x="762" y="914"/>
    </contour>
  </outline>
</glyph>
<glyph name="comma" format="1">
  <advance width="461"/>
  <unicode hex="002C"/>
  <outline>
    <contour>
      <point x="158" y="-293" type="curve"/>
      <point x="197" y="-293" type="line"/>
      <point x="197" y="-293"/>
      <point x="277" y="119"/>
      <point x="277" y="168" type="curve" smooth="yes"/>
      <point x="277" y="196" type="line"/>
      <point x="164" y="196" type="line"/>
      <point x="164" y="74"/>
      <point x="158" y="-293"/>
    </contour>
  </outline>
</glyph>
<glyph name="nine" format="1">
  <advance width="1200"/>
  <unicode hex="0039"/>
  <outline>
    <contour>
      <point x="361" y="0" type="line"/>
      <point x="463" y="0" type="line"/>
      <point x="792" y="439" type="line" smooth="yes"/>
      <point x="956" y="658"/>
      <point x="1060" y="798"/>
      <point x="1060" y="1031" type="curve" smooth="yes"/>
      <point x="1060" y="1240"/>
      <point x="928" y="1476"/>
      <point x="626" y="1476" type="curve" smooth="yes"/>
      <point x="342" y="1476"/>
      <point x="185" y="1267"/>
      <point x="185" y="1035" type="curve" smooth="yes"/>
      <point x="185" y="778"/>
      <point x="393" y="613"/>
      <point x="601" y="613" type="curve" smooth="yes"/>
      <point x="696" y="613"/>
      <point x="795" y="636"/>
      <point x="869" y="679" type="curve"/>
      <point x="696" y="459"/>
      <point x="530" y="232"/>
      <point x="361" y="8" type="curve"/>
    </contour>
    <contour>
      <point x="616" y="693" type="curve" smooth="yes"/>
      <point x="401" y="693"/>
      <point x="271" y="840"/>
      <point x="271" y="1034" type="curve" smooth="yes"/>
      <point x="271" y="1219"/>
      <point x="395" y="1402"/>
      <point x="626" y="1402" type="curve" smooth="yes"/>
      <point x="861" y="1402"/>
      <point x="977" y="1224"/>
      <point x="977" y="1041" type="curve" smooth="yes"/>
      <point x="977" y="743"/>
      <point x="718" y="693"/>
    </contour>
  </outline>
</glyph>
<glyph name="A" format="1">
  <advance width="1278"/>
  <unicode hex="0041"/>
  <outline>
    <contour>
      <point x="639" y="1455" type="move" name="top"/>
    </contour>
    <contour>
      <point x="639" y="0" type="move" name="bot"/>
    </contour>
    <contour>
      <point x="364" y="582" type="line"/>
      <point x="638" y="1339" type="line"/>
      <point x="927" y="582" type="line"/>
    </contour>
    <contour>
      <point x="607" y="1455" type="line"/>
      <point x="50" y="0" type="line"/>
      <point x="141" y="0" type="line"/>
      <point x="338" y="514" type="line"/>
      <point x="952" y="514" type="line"/>
      <point x="1145" y="0" type="line"/>
      <point x="1227" y="0" type="line"/>
      <point x="670" y="1455" type="line"/>
    </contour>
  </outline>
</glyph>
<glyph name="R" format="1">
  <advance width="1399"/>
  <unicode hex="0052"/>
  <outline>
    <contour>
      <point x="698" y="1456" type="move" name="top"/>
    </contour>
    <contour>
      <point x="703" y="0" type="move" name="bot"/>
    </contour>
    <contour>
      <point x="314" y="1388" type="line"/>
      <point x="442" y="1396"/>
      <point x="550" y="1400"/>
      <point x="641" y="1400" type="curve" smooth="yes"/>
      <point x="1058" y="1400"/>
      <point x="1129" y="1313"/>
      <point x="1130" y="1108" type="curve" smooth="yes"/>
      <point x="1130" y="897"/>
      <point x="1071" y="823"/>
      <point x="771" y="823" type="curve" smooth="yes"/>
      <point x="314" y="823" type="line"/>
    </contour>
    <contour>
      <point x="222" y="0" type="line"/>
      <point x="314" y="0" type="line"/>
      <point x="314" y="755" type="line"/>
      <point x="851" y="755" type="line"/>
      <point x="1184" y="0" type="line"/>
      <point x="1271" y="0" type="line"/>
      <point x="1271" y="13" type="line"/>
      <point x="946" y="763" type="line"/>
      <point x="1125" y="798"/>
      <point x="1216" y="890"/>
      <point x="1216" y="1110" type="curve" smooth="yes"/>
      <point x="1215" y="1364"/>
      <point x="1133" y="1467"/>
      <point x="609" y="1467" type="curve" smooth="yes"/>
      <point x="500" y="1467"/>
      <point x="372" y="1462"/>
      <point x="222" y="1454" type="curve"/>
    </contour>
  </outline>
</glyph>
<glyph name="c" format="1">
  <advance width="1086"/>
  <unicode hex="0063"/>
  <outline>
    <contour>
      <point x="612" y="1082" type="move" name="top"/>
    </contour>
    <contour>
      <point x="610" y="0" type="move" name="bot"/>
    </contour>
    <contour>
      <point x="907" y="261" type="line"/>
      <point x="869" y="131"/>
      <point x="741" y="49"/>
      <point x="593" y="49" type="curve" smooth="yes"/>
      <point x="357" y="49"/>
      <point x="218" y="239"/>
      <point x="218" y="541" type="curve" smooth="yes"/>
      <point x="218" y="843"/>
      <point x="357" y="1033"/>
      <point x="593" y="1033" type="curve" smooth="yes"/>
      <point x="742" y="1033"/>
      <point x="870" y="951"/>
      <point x="907" y="820" type="curve"/>
      <point x="923" y="820" type="line"/>
      <point x="978" y="843" type="line"/>
      <point x="938" y="1002"/>
      <point x="784" y="1102"/>
      <point x="593" y="1102" type="curve" smooth="yes"/>
      <point x="299" y="1102"/>
      <point x="120" y="886"/>
      <point x="120" y="541" type="curve" smooth="yes"/>
      <point x="120" y="196"/>
      <point x="299" y="-20"/>
      <point x="593" y="-20" type="curve" smooth="yes"/>
      <point x="784" y="-20"/>
      <point x="939" y="81"/>
      <point x="978" y="239" type="curve"/>
      <point x="926" y="261" type="line"/>
    </contour>
  </outline>
</glyph>
<glyph name="d" format="1">
  <advance width="1237"/>
  <unicode hex="0064"/>
  <outline>
    <contour>
      <point x="596" y="1082" type="move" name="top"/>
    </contour>
    <contour>
      <point x="1025" y="1092" type="move" name="caron.alt"/>
    </contour>
    <contour>
      <point x="951" y="1540" type="line"/>
      <point x="951" y="1180" type="line"/>
      <point x="959" y="904" type="line"/>
      <point x="900" y="1028"/>
      <point x="771" y="1102"/>
      <point x="597" y="1102" type="curve" smooth="yes"/>
      <point x="303" y="1102"/>
      <point x="120" y="888"/>
      <point x="120" y="548" type="curve" smooth="yes"/>
      <point x="120" y="199"/>
      <point x="298" y="-20"/>
      <point x="585" y="-20" type="curve" smooth="yes"/>
      <point x="753" y="-20"/>
      <point x="893" y="53"/>
      <point x="963" y="176" type="curve"/>
      <point x="972" y="0" type="line"/>
      <point x="1049" y="0" type="line"/>
      <point x="1049" y="1560" type="line"/>
    </contour>
    <contour>
      <point x="585" y="50" type="curve" smooth="yes"/>
      <point x="358" y="50"/>
      <point x="218" y="242"/>
      <point x="218" y="547" type="curve" smooth="yes"/>
      <point x="218" y="845"/>
      <point x="364" y="1032"/>
      <point x="598" y="1032" type="curve" smooth="yes"/>
      <point x="756" y="1032"/>
      <point x="887" y="950"/>
      <point x="952" y="780" type="curve"/>
      <point x="952" y="278" type="line"/>
      <point x="897" y="138"/>
      <point x="757" y="50"/>
    </contour>
  </outline>
</glyph>
<glyph name="h" format="1">
  <advance width="1183"/>
  <unicode hex="0068"/>
  <outline>
    <contour>
      <point x="578" y="1286" type="move" name="top"/>
    </contour>
    <contour>
      <point x="188" y="0" type="line"/>
      <point x="285" y="0" type="line"/>
      <point x="285" y="655" type="line" smooth="yes"/>
      <point x="285" y="816"/>
      <point x="361" y="1032"/>
      <point x="652" y="1032" type="curve" smooth="yes"/>
      <point x="842" y="1032"/>
      <point x="911" y="910"/>
      <point x="911" y="680" type="curve" smooth="yes"/>
      <point x="911" y="0" type="line"/>
      <point x="1008" y="0" type="line"/>
      <point x="1008" y="674" type="line" smooth="yes"/>
      <point x="1008" y="931"/>
      <point x="901" y="1102"/>
      <point x="664" y="1102" type="curve" smooth="yes"/>
      <point x="491" y="1102"/>
      <point x="354" y="1035"/>
      <point x="280" y="895" type="curve"/>
      <point x="285" y="1123" type="line"/>
      <point x="285" y="1560" type="line"/>
      <point x="188" y="1540" type="line"/>
    </contour>
  </outline>
</glyph>
<glyph name="i" format="1">
  <advance width="487"/>
  <unicode hex="0069"/>
  <outline>
    <contour>
      <point x="260" y="1082" type="move" name="top"/>
    </contour>
    <contour>
      <point x="333" y="1406" type="curve" smooth="yes"/>
      <point x="333" y="1453"/>
      <point x="310" y="1478"/>
      <point x="260" y="1478" type="curve" smooth="yes"/>
      <point x="208" y="1478"/>
      <point x="186" y="1453"/>
      <point x="186" y="1406" type="curve" smooth="yes"/>
      <point x="186" y="1358"/>
      <point x="208" y="1333"/>
      <point x="260" y="1333" type="curve" smooth="yes"/>
      <point x="310" y="1333"/>
      <point x="333" y="1358"/>
    </contour>
    <contour>
      <point x="208" y="1082" type="line"/>
      <point x="208" y="0" type="line"/>
      <point x="305" y="0" type="line"/>
      <point x="305" y="1082" type="line"/>
    </contour>
  </outline>
</glyph>
<glyph name="j" format="1">
  <advance width="495"/>
  <unicode hex="006A"/>
  <outline>
    <contour>
      <point x="222" y="1082" type="line"/>
      <point x="222" y="57" type="line" smooth="yes"/>
      <point x="222" y="-150"/>
      <point x="220" y="-221"/>
      <point x="66" y="-221" type="curve"/>
      <point x="29" y="-222" type="line"/>
      <point x="25" y="-310" type="line"/>
      <point x="80" y="-310" type="line"/>
      <point x="225" y="-309"/>
      <point x="319" y="-245"/>
      <point x="319" y="-20" type="curve" smooth="yes"/>
      <point x="319" y="1082" type="line"/>
    </contour>
    <contour>
      <point x="347" y="1405" type="curve" smooth="yes"/>
      <point x="347" y="1452"/>
      <point x="324" y="1477"/>
      <point x="274" y="1477" type="curve" smooth="yes"/>
      <point x="222" y="1477"/>
      <point x="200" y="1452"/>
      <point x="200" y="1405" type="curve" smooth="yes"/>
      <point x="200" y="1357"/>
      <point x="222" y="1332"/>
      <point x="274" y="1332" type="curve" smooth="yes"/>
      <point x="324" y="1332"/>
      <point x="347" y="1357"/>
    </contour>
  </outline>
</glyph>
<glyph name="k" format="1">
  <advance width="1058"/>
  <unicode hex="006B"/>
  <outline>
    <contour>
      <point x="584" y="0" type="move" name="bot"/>
    </contour>
    <contour>
      <point x="189" y="0" type="line"/>
      <point x="286" y="0" type="line"/>
      <point x="286" y="396" type="line"/>
      <point x="424" y="520" type="line"/>
      <point x="907" y="0" type="line"/>
      <point x="1018" y="0" type="line"/>
      <point x="1018" y="5" type="line"/>
      <point x="481" y="571" type="line"/>
      <point x="1010" y="1077" type="line"/>
      <point x="1010" y="1082" type="line"/>
      <point x="907" y="1082" type="line"/>
      <point x="280" y="488" type="line"/>
      <point x="286" y="691" type="line"/>
      <point x="286" y="1560" type="line"/>
      <point x="189" y="1540" type="line"/>
    </contour>
  </outline>
</glyph>
<glyph name="r" format="1">
  <advance width="773"/>
  <unicode hex="0072"/>
  <outline>
    <contour>
      <point x="448" y="1082" type="move" name="top"/>
    </contour>
    <contour>
      <point x="251" y="0" type="move" name="bot"/>
    </contour>
    <contour>
      <point x="188" y="0" type="line"/>
      <point x="285" y="0" type="line"/>
      <point x="285" y="642" type="line" smooth="yes"/>
      <point x="285" y="841"/>
      <point x="433" y="1026"/>
      <point x="624" y="1026" type="curve" smooth="yes"/>
      <point x="641" y="1026"/>
      <point x="669" y="1023"/>
      <point x="686" y="1018" type="curve"/>
      <point x="695" y="1091" type="line"/>
      <point x="675" y="1094"/>
      <point x="645" y="1096"/>
      <point x="611" y="1096" type="curve" smooth="yes"/>
      <point x="482" y="1096"/>
      <point x="342" y="1030"/>
      <point x="267" y="821" type="curve"/>
      <point x="257" y="1082" type="line"/>
      <point x="188" y="1082" type="line"/>
    </contour>
  </outline>
</glyph>
<glyph name="t" format="1">
  <advance width="757"/>
  <unicode hex="0074"/>
  <outline>
    <contour>
      <point x="281" y="1262" type="move" name="top"/>
    </contour>
    <contour>
      <point x="431" y="0" type="move" name="bot"/>
    </contour>
    <contour>
      <point x="497" y="-10" type="curve" smooth="yes"/>
      <point x="588" y="-10"/>
      <point x="649" y="2"/>
      <point x="649" y="2" type="curve"/>
      <point x="649" y="60" type="line"/>
      <point x="649" y="60"/>
      <point x="578" y="52"/>
      <point x="508" y="52" type="curve" smooth="yes"/>
      <point x="399" y="52"/>
      <point x="333" y="93"/>
      <point x="333" y="264" type="curve" smooth="yes"/>
      <point x="333" y="1029" type="line"/>
      <point x="661" y="1029" type="line"/>
      <point x="661" y="1082" type="line"/>
      <point x="333" y="1082" type="line"/>
      <point x="333" y="1361" type="line"/>
      <point x="253" y="1352" type="line"/>
      <point x="237" y="1083" type="line"/>
      <point x="87" y="1072" type="line"/>
      <point x="90" y="1028" type="line"/>
      <point x="236" y="1028" type="line"/>
      <point x="236" y="255" type="line" smooth="yes"/>
      <point x="236" y="61"/>
      <point x="349" y="-10"/>
    </contour>
  </outline>
</glyph>
<glyph name="copyright" format="1">
  <advance width="1953"/>
  <unicode hex="00A9"/>
  <outline>
    <contour>
      <point x="1009" y="225" type="curve" smooth="yes"/>
      <point x="1101" y="225"/>
      <point x="1200" y="253"/>
      <point x="1297" y="315" type="curve"/>
      <point x="1273" y="382" type="line"/>
      <point x="1172" y="321"/>
      <point x="1094" y="303"/>
      <point x="1005" y="303" type="curve" smooth="yes"/>
      <point x="782" y="303"/>
      <point x="590" y="476"/>
      <point x="590" y="772" type="curve" smooth="yes"/>
      <point x="590" y="1029"/>
      <point x="783" y="1217"/>
      <point x="996" y="1217" type="curve" smooth="yes"/>
      <point x="1072" y="1217"/>
      <point x="1177" y="1188"/>
      <point x="1256" y="1119" type="curve"/>
      <point x="1293" y="1193" type="line"/>
      <point x="1193" y="1263"/>
      <point x="1090" y="1295"/>
      <point x="994" y="1295" type="curve" smooth="yes"/>
      <point x="729" y="1295"/>
      <point x="486" y="1071"/>
      <point x="486" y="762" type="curve" smooth="yes"/>
      <point x="486" y="448"/>
      <point x="735" y="225"/>
    </contour>
    <contour>
      <point x="968" y="14" type="curve" smooth="yes"/>
      <point x="628" y="14"/>
      <point x="248" y="234"/>
      <point x="248" y="762" type="curve" smooth="yes"/>
      <point x="248" y="1291"/>
      <point x="629" y="1513"/>
      <point x="968" y="1513" type="curve" smooth="yes"/>
      <point x="1305" y="1513"/>
      <point x="1691" y="1290"/>
      <point x="1691" y="762" type="curve" smooth="yes"/>
      <point x="1691" y="235"/>
      <point x="1305" y="14"/>
    </contour>
    <contour>
      <point x="967" y="-47" type="curve" smooth="yes"/>
      <point x="1351" y="-47"/>
      <point x="1776" y="193"/>
      <point x="1776" y="762" type="curve" smooth="yes"/>
      <point x="1776" y="1331"/>
      <point x="1351" y="1574"/>
      <point x="968" y="1574" type="curve" smooth="yes"/>
      <point x="583" y="1574"/>
      <point x="163" y="1330"/>
      <point x="163" y="762" type="curve" smooth="yes"/>
      <point x="163" y="193"/>
      <point x="583" y="-47"/>
    </contour>
  </outline>
</glyph>
<glyph name="uni00AD" format="1">
  <advance width="1152"/>
  <unicode hex="00AD"/>
  <outline>
    <contour>
      <point x="145" y="101" type="line"/>
      <point x="993" y="101" type="line"/>
      <point x="993" y="178" type="line"/>
      <point x="145" y="178" type="line"/>
    </contour>
  </outline>
</glyph>
<glyph name="cedilla" format="1">
  <advance width="624"/>
  <unicode hex="00B8"/>
  <outline>
    <contour>
      <point x="307" y="0" type="move" name="_bot"/>
    </contour>
    <contour>
      <point x="460" y="-199" type="curve" smooth="yes"/>
      <point x="460" y="-297"/>
      <point x="371" y="-339"/>
      <point x="282" y="-339" type="curve" smooth="yes"/>
      <point x="234" y="-339"/>
      <point x="186" y="-327"/>
      <point x="148" y="-305" type="curve"/>
      <point x="127" y="-356" type="line"/>
      <point x="170" y="-376"/>
      <point x="220" y="-387"/>
      <point x="275" y="-387" type="curve" smooth="yes"/>
      <point x="420" y="-387"/>
      <point x="523" y="-312"/>
      <point x="523" y="-199" type="curve" smooth="yes"/>
      <point x="523" y="-92"/>
      <point x="442" y="-43"/>
      <point x="351" y="-43" type="curve" smooth="yes"/>
      <point x="320" y="-43"/>
      <point x="288" y="-49"/>
      <point x="258" y="-60" type="curve"/>
      <point x="259" y="-94" type="line"/>
      <point x="287" y="-88"/>
      <point x="311" y="-86"/>
      <point x="332" y="-86" type="curve" smooth="yes"/>
      <point x="439" y="-86"/>
      <point x="460" y="-152"/>
    </contour>
  </outline>
</glyph>
<glyph name="hungarumlaut" format="1">
  <advance width="671"/>
  <unicode hex="02DD"/>
  <outline>
    <contour>
      <point x="233" y="1082" type="move" name="_top"/>
    </contour>
    <contour>
      <point x="344" y="1260" type="line"/>
      <point x="398" y="1260" type="line"/>
      <point x="663" y="1611" type="line"/>
      <point x="558" y="1611" type="line"/>
    </contour>
    <contour>
      <point x="124" y="1260" type="line"/>
      <point x="178" y="1260" type="line"/>
      <point x="443" y="1611" type="line"/>
      <point x="338" y="1611" type="line"/>
    </contour>
  </outline>
</glyph>
<glyph name="uni030F" format="1">
  <advance width="708"/>
  <unicode hex="030F"/>
  <outline>
    <contour>
      <point x="554" y="1082" type="move" name="_top"/>
    </contour>
    <contour>
      <point x="124" y="1611" type="line"/>
      <point x="389" y="1260" type="line"/>
      <point x="443" y="1260" type="line"/>
      <point x="229" y="1611" type="line"/>
    </contour>
    <contour>
      <point x="344" y="1611" type="line"/>
      <point x="609" y="1260" type="line"/>
      <point x="663" y="1260" type="line"/>
      <point x="449" y="1611" type="line"/>
    </contour>
  </outline>
</glyph>
<glyph name="uni0358" format="1">
  <advance width="271"/>
  <unicode hex="0358"/>
  <outline>
    <contour>
      <point x="141" y="1082" type="move" name="_top"/>
    </contour>
    <contour>
      <point x="217" y="1449" type="curve" smooth="yes"/>
      <point x="217" y="1497"/>
      <point x="194" y="1521"/>
      <point x="144" y="1521" type="curve" smooth="yes"/>
      <point x="93" y="1521"/>
      <point x="70" y="1497"/>
      <point x="70" y="1449" type="curve" smooth="yes"/>
      <point x="70" y="1401"/>
      <point x="93" y="1377"/>
      <point x="144" y="1377" type="curve" smooth="yes"/>
      <point x="194" y="1377"/>
      <point x="217" y="1401"/>
    </contour>
  </outline>
</glyph>
<glyph name="dagger" format="1">
  <advance width="958"/>
  <unicode hex="2020"/>
  <outline>
    <contour>
      <point x="437" y="1454" type="line"/>
      <point x="437" y="1047" type="line"/>
      <point x="155" y="1047" type="line"/>
      <point x="155" y="1011" type="line"/>
      <point x="437" y="1011" type="line"/>
      <point x="437" y="126" type="line"/>
      <point x="491" y="126" type="line"/>
      <point x="491" y="1011" type="line"/>
      <point x="763" y="1011" type="line"/>
      <point x="763" y="1047" type="line"/>
      <point x="482" y="1047" type="line"/>
      <point x="482" y="1454" type="line"/>
    </contour>
  </outline>
</glyph>
<glyph name="afii61289" format="1">
  <advance width="1098"/>
  <unicode hex="2113"/>
  <outline>
    <contour>
      <point x="315" y="224" type="curve" smooth="yes"/>
      <point x="315" y="48"/>
      <point x="394" y="-21"/>
      <point x="523" y="-21" type="curve" smooth="yes"/>
      <point x="715" y="-21"/>
      <point x="843" y="98"/>
      <point x="843" y="98" type="curve"/>
      <point x="824" y="150" type="line"/>
      <point x="721" y="84"/>
      <point x="637" y="47"/>
      <point x="552" y="47" type="curve" smooth="yes"/>
      <point x="449" y="47"/>
      <point x="408" y="102"/>
      <point x="408" y="207" type="curve" smooth="yes"/>
      <point x="408" y="263"/>
      <point x="420" y="334"/>
      <point x="440" y="417" type="curve" smooth="yes"/>
      <point x="485" y="598" type="line"/>
      <point x="786" y="865" type="line" smooth="yes"/>
      <point x="1021" y="1073"/>
      <point x="1110" y="1214"/>
      <point x="1110" y="1424" type="curve" smooth="yes"/>
      <point x="1110" y="1606"/>
      <point x="999" y="1670"/>
      <point x="884" y="1671" type="curve" smooth="yes"/>
      <point x="778" y="1671"/>
      <point x="667" y="1631"/>
      <point x="603" y="1396" type="curve" smooth="yes"/>
      <point x="391" y="613" type="line"/>
      <point x="90" y="380" type="line"/>
      <point x="125" y="334" type="line"/>
      <point x="370" y="525" type="line"/>
      <point x="332" y="403"/>
      <point x="315" y="303"/>
    </contour>
    <contour>
      <point x="508" y="697" type="curve"/>
      <point x="678" y="1408" type="line"/>
      <point x="713" y="1549"/>
      <point x="789" y="1605"/>
      <point x="883" y="1605" type="curve" smooth="yes"/>
      <point x="885" y="1605" type="line" smooth="yes"/>
      <point x="996" y="1605"/>
      <point x="1040" y="1532"/>
      <point x="1040" y="1422" type="curve" smooth="yes"/>
      <point x="1040" y="1286"/>
      <point x="988" y="1126"/>
      <point x="760" y="922" type="curve" smooth="yes"/>
      <point x="758" y="922"/>
      <point x="567" y="750"/>
    </contour>
  </outline>
</glyph>
<glyph name="estimated" format="1">
  <advance width="647"/>
  <unicode hex="212E"/>
  <outline>
    <contour>
      <point x="99" y="405" type="curve" smooth="yes"/>
      <point x="99" y="163"/>
      <point x="244" y="-18"/>
      <point x="537" y="-18" type="curve" smooth="yes"/>
      <point x="696" y="-18"/>
      <point x="800" y="50"/>
      <point x="877" y="139" type="curve"/>
      <point x="837" y="178" type="line"/>
      <point x="762" y="98"/>
      <point x="676" y="37"/>
      <point x="537" y="37" type="curve" smooth="yes"/>
      <point x="361" y="37"/>
      <point x="268" y="182"/>
      <point x="267" y="390" type="curve"/>
      <point x="883" y="390" type="line"/>
      <point x="883" y="653"/>
      <point x="769" y="827"/>
      <point x="524" y="827" type="curve" smooth="yes"/>
      <point x="276" y="827"/>
      <point x="99" y="647"/>
    </contour>
    <contour>
      <point x="797" y="451" type="curve"/>
      <point x="269" y="451" type="line"/>
      <point x="280" y="649"/>
      <point x="396" y="782"/>
      <point x="528" y="782" type="curve" smooth="yes"/>
      <point x="689" y="782"/>
      <point x="797" y="628"/>
    </contour>
  </outline>
</glyph>
<glyph name="approxequal" format="1">
  <advance width="1297"/>
  <unicode hex="2248"/>
  <outline>
    <contour>
      <point x="949" y="889" type="curve" smooth="yes"/>
      <point x="880" y="889"/>
      <point x="789" y="925"/>
      <point x="685" y="976" type="curve" smooth="yes"/>
      <point x="571" y="1031"/>
      <point x="468" y="1071"/>
      <point x="382" y="1071" type="curve" smooth="yes"/>
      <point x="277" y="1071"/>
      <point x="200" y="1015"/>
      <point x="169" y="866" type="curve"/>
      <point x="216" y="849" type="line"/>
      <point x="239" y="979"/>
      <point x="304" y="1024"/>
      <point x="386" y="1024" type="curve" smooth="yes"/>
      <point x="458" y="1024"/>
      <point x="543" y="990"/>
      <point x="629" y="949" type="curve" smooth="yes"/>
      <point x="758" y="884"/>
      <point x="869" y="844"/>
      <point x="954" y="844" type="curve" smooth="yes"/>
      <point x="1058" y="844"/>
      <point x="1121" y="902"/>
      <point x="1128" y="1046" type="curve"/>
      <point x="1083" y="1062" type="line"/>
      <point x="1079" y="937"/>
      <point x="1029" y="889"/>
    </contour>
    <contour>
      <point x="949" y="520" type="curve" smooth="yes"/>
      <point x="880" y="520"/>
      <point x="789" y="556"/>
      <point x="685" y="607" type="curve" smooth="yes"/>
      <point x="571" y="662"/>
      <point x="468" y="702"/>
      <point x="382" y="702" type="curve" smooth="yes"/>
      <point x="277" y="702"/>
      <point x="200" y="646"/>
      <point x="169" y="497" type="curve"/>
      <point x="216" y="480" type="line"/>
      <point x="239" y="610"/>
      <point x="304" y="655"/>
      <point x="386" y="655" type="curve" smooth="yes"/>
      <point x="458" y="655"/>
      <point x="543" y="621"/>
      <point x="629" y="580" type="curve" smooth="yes"/>
      <point x="758" y="515"/>
      <point x="869" y="475"/>
      <point x="954" y="475" type="curve" smooth="yes"/>
      <point x="1058" y="475"/>
      <point x="1121" y="533"/>
      <point x="1128" y="677" type="curve"/>
      <point x="1083" y="693" type="line"/>
      <point x="1079" y="568"/>
      <point x="1029" y="520"/>
    </contour>
  </outline>
</glyph>
